HIERARCHY
ROOT Hips
{
	OFFSET 0.000000 0.000000 0.000000
	CHANNELS 6 Xposition Yposition Zposition Zrotation Yrotation Xrotation 
	JOINT LowerBack
	{
		OFFSET 0.000000 0.000000 0.000000
		CHANNELS 3 Zrotation Yrotation Xrotation
		JOINT Spine
		{
			OFFSET 0.028270 2.035590 -0.193380
			CHANNELS 3 Zrotation Yrotation Xrotation
			JOINT Spine1
			{
				OFFSET 0.056720 2.048850 -0.042750
				CHANNELS 3 Zrotation Yrotation Xrotation
				JOINT Neck
				{
					OFFSET 0.000000 0.000000 0.000000
					CHANNELS 3 Zrotation Yrotation Xrotation
					JOINT Neck1
					{
						OFFSET -0.054170 1.746240 0.172020
						CHANNELS 3 Zrotation Yrotation Xrotation
						JOINT Head
						{
							OFFSET 0.104070 1.761360 -0.123970
							CHANNELS 3 Zrotation Yrotation Xrotation
							End Site
							{
								OFFSET 0.000000 0.000000 0.000000
							}
						}
					}
				}
				JOINT LeftShoulder
				{
					OFFSET 0.000000 0.000000 0.000000
					CHANNELS 3 Zrotation Yrotation Xrotation
					JOINT LeftArm
					{
						OFFSET 3.362410 1.200890 -0.311210
						CHANNELS 3 Zrotation Yrotation Xrotation
						JOINT LeftForeArm
						{
							OFFSET 4.983000 -0.000000 -0.000000
							CHANNELS 3 Zrotation Yrotation Xrotation
							JOINT LeftHand
							{
								OFFSET 3.483560 -0.000000 -0.000000
								CHANNELS 3 Zrotation Yrotation Xrotation
								JOINT LeftFingerBase
								{
									OFFSET 0.000000 0.000000 0.000000
									CHANNELS 3 Zrotation Yrotation Xrotation
									JOINT LeftHandIndex1
									{
										OFFSET 0.715260 -0.000000 -0.000000
										CHANNELS 3 Zrotation Yrotation Xrotation
										End Site
										{
											OFFSET 0.000000 0.000000 0.000000
										}
									}
								}
								JOINT LThumb
								{
									OFFSET 0.000000 0.000000 0.000000
									CHANNELS 3 Zrotation Yrotation Xrotation
									End Site
									{
										OFFSET 0.000000 0.000000 0.000000
									}
								}
							}
						}
					}
				}
				JOINT RightShoulder
				{
					OFFSET 0.000000 0.000000 0.000000
					CHANNELS 3 Zrotation Yrotation Xrotation
					JOINT RightArm
					{
						OFFSET -3.136600 1.374050 -0.404650
						CHANNELS 3 Zrotation Yrotation Xrotation
						JOINT RightForeArm
						{
							OFFSET -5.241900 -0.000000 -0.000000
							CHANNELS 3 Zrotation Yrotation Xrotation
							JOINT RightHand
							{
								OFFSET -3.444170 -0.000000 -0.000000
								CHANNELS 3 Zrotation Yrotation Xrotation
								JOINT RightFingerBase
								{
									OFFSET 0.000000 0.000000 0.000000
									CHANNELS 3 Zrotation Yrotation Xrotation
									JOINT RightHandIndex1
									{
										OFFSET -0.622530 -0.000000 -0.000000
										CHANNELS 3 Zrotation Yrotation Xrotation
										End Site
										{
											OFFSET 0.000000 0.000000 0.000000
										}
									}
								}
								JOINT RThumb
								{
									OFFSET 0.000000 0.000000 0.000000
									CHANNELS 3 Zrotation Yrotation Xrotation
									End Site
									{
										OFFSET 0.000000 0.000000 0.000000
									}
								}
							}
						}
					}
				}
			}
		}
	}
}
}
MOTION
Frames: 9
Frame Time: 0.008333
-2.453447 16.796530 0.123811 5.523320 55.558754 18.775214 -0.945366 -0.729492 -4.740036 -1.062098 -0.912582 -3.933862 -7.074248 -1.038241 -0.193479 11.451421 -5.654553 -4.964788 -4.186639 -0.359887 0.754403 0.000000 0.000000 0.000000 -4.494963 6.878602 2.194905 -69.410264 22.005522 14.140373 -3.441219 -15.417546 -0.007047 0.199283 6.295765 0.014494 -0.063921 -0.108052 -0.000000 0.000000 0.000000 0.000000 0.000000 0.000000 0.000000 19.566910 -1.042113 -0.897989 72.852674 17.404050 21.764572 1.388595 58.846513 0.005602 -0.447129 8.496186 -0.035706 0.035369 -0.308540 0.000000 0.000000 0.000000 0.000000 0.000000 0.000000 0.000000 
-2.300658 16.785697 0.178754 6.214469 53.940839 19.252683 -1.476982 -0.811027 -4.618552 -1.159013 -0.944462 -3.921085 -7.081370 -1.075516 -0.200475 11.527237 -5.607839 -4.994546 -4.217879 -0.361663 0.742888 0.000000 0.000000 0.000000 -4.526106 6.902939 2.185567 -69.267638 21.859452 14.667202 -3.411146 -15.462751 -0.006171 0.500540 6.216119 0.030901 -0.062009 -0.108115 -0.000000 0.000000 0.000000 0.000000 0.000000 0.000000 0.000000 19.850857 -1.050808 -0.869106 73.182335 17.102546 21.821686 1.425094 57.872727 0.005068 -0.636018 8.523733 -0.050609 0.038138 -0.303905 0.000000 0.000000 0.000000 0.000000 0.000000 0.000000 0.000000 
-2.153358 16.779649 0.232135 6.769799 52.288192 19.635743 -1.941899 -0.894946 -4.495213 -1.241724 -0.984629 -3.907649 -7.080272 -1.120745 -0.206994 11.565884 -5.527600 -5.027784 -4.247673 -0.363230 0.730208 0.000000 0.000000 0.000000 -4.579398 6.919011 2.184005 -69.143268 21.606516 15.088224 -3.382777 -15.501335 -0.005274 0.815202 6.118783 0.047411 -0.060193 -0.107267 -0.000000 0.000000 0.000000 0.000000 0.000000 0.000000 0.000000 20.088122 -1.032102 -0.832054 73.536389 16.814495 21.849950 1.465429 56.706671 0.004480 -0.840757 8.504766 -0.066420 0.041052 -0.297785 0.000000 0.000000 0.000000 0.000000 0.000000 0.000000 0.000000 
-2.010764 16.778798 0.282953 7.174077 50.613073 19.915290 -2.313694 -0.978103 -4.368617 -1.305517 -1.031856 -3.893033 -7.071115 -1.172424 -0.212204 11.565273 -5.414233 -5.063372 -4.275853 -0.364580 0.716755 0.000000 0.000000 0.000000 -4.656975 6.926404 2.190458 -69.043052 21.239026 15.407075 -3.355404 -15.521993 -0.004375 1.143182 6.005490 0.063924 -0.058459 -0.105476 -0.000000 0.000000 0.000000 0.000000 0.000000 0.000000 0.000000 20.272999 -0.985990 -0.786768 73.897022 16.541999 21.837586 1.508480 55.371359 0.003853 -1.059094 8.438194 -0.082839 0.044061 -0.290274 0.000000 0.000000 0.000000 0.000000 0.000000 0.000000 0.000000 
-1.871962 16.783253 0.330495 7.421855 48.926177 20.090478 -2.573792 -1.056650 -4.238642 -1.347358 -1.083606 -3.877308 -7.054958 -1.227840 -0.216280 11.526440 -5.272482 -5.099651 -4.302262 -0.365721 0.703097 0.000000 0.000000 0.000000 -4.758254 6.917553 2.204268 -68.970644 20.761980 15.625985 -3.328442 -15.523408 -0.003489 1.485291 5.878392 0.080438 -0.056798 -0.102788 -0.000000 0.000000 0.000000 0.000000 0.000000 0.000000 0.000000 20.403496 -0.916963 -0.732516 74.245396 16.285783 21.775128 1.553669 53.895216 0.003210 -1.288247 8.328026 -0.099165 0.047153 -0.281560 0.000000 0.000000 0.000000 0.000000 0.000000 0.000000 0.000000 
-1.735964 16.792936 0.374505 7.515807 47.235152 20.166985 -2.711926 -1.126758 -4.105545 -1.365872 -1.136688 -3.860408 -7.033036 -1.283667 -0.218127 11.453176 -5.103529 -5.135746 -4.326630 -0.366636 0.689508 0.000000 0.000000 0.000000 -4.873843 6.898474 2.224690 -68.926278 20.169515 15.773358 -3.300678 -15.499209 -0.002636 1.842327 5.739438 0.096655 -0.055213 -0.099256 -0.000000 0.000000 0.000000 0.000000 0.000000 0.000000 0.000000 20.479807 -0.824556 -0.670175 74.564770 16.039102 21.645271 1.600461 52.313874 0.002585 -1.519833 8.180803 -0.114697 0.050215 -0.271901 0.000000 0.000000 0.000000 0.000000 0.000000 0.000000 0.000000 
-1.601920 16.807548 0.415187 7.470187 45.546188 20.158146 -2.729573 -1.184921 -3.970324 -1.362210 -1.187399 -3.843304 -7.008640 -1.336242 -0.221069 11.353125 -4.930076 -5.169069 -4.349444 -0.367427 0.676883 0.000000 0.000000 0.000000 -5.005450 6.830083 2.248487 -68.903433 19.516044 15.819018 -3.273064 -15.487164 -0.001836 2.212378 5.594661 0.112473 -0.053719 -0.095145 -0.000000 0.000000 0.000000 0.000000 0.000000 0.000000 0.000000 20.513449 -0.733802 -0.595595 74.836593 15.814472 21.465888 1.650400 50.648686 0.002008 -1.759519 8.011631 -0.129833 0.053480 -0.261595 0.000000 0.000000 0.000000 0.000000 0.000000 0.000000 0.000000 
-1.469163 16.826567 0.453105 7.302636 43.864416 20.077049 -2.635358 -1.230391 -3.831529 -1.338389 -1.234083 -3.824762 -6.982359 -1.383811 -0.220672 11.233726 -4.739950 -5.201074 -4.369958 -0.367988 0.664606 0.000000 0.000000 0.000000 -5.126407 6.756580 2.275861 -68.896066 18.760423 15.853041 -3.243446 -15.463471 -0.001111 2.592393 5.444771 0.127792 -0.052364 -0.090446 -0.000000 0.000000 0.000000 0.000000 0.000000 0.000000 0.000000 20.505626 -0.627965 -0.514600 75.054107 15.586713 21.196527 1.702297 48.946915 0.001524 -1.984910 7.829179 -0.142973 0.056548 -0.250966 0.000000 0.000000 0.000000 0.000000 0.000000 0.000000 0.000000 
-1.337357 16.849263 0.489252 7.039572 42.196092 19.938703 -2.448577 -1.263742 -3.686218 -1.298646 -1.275644 -3.804660 -6.957366 -1.425400 -0.219314 11.105543 -4.546414 -5.229752 -4.388703 -0.368401 0.653218 0.000000 0.000000 0.000000 -5.229401 6.658604 2.304412 -68.890230 17.945346 15.875326 -3.213099 -15.463579 -0.000490 2.974505 5.296314 0.142113 -0.051222 -0.085414 0.000000 0.000000 0.000000 0.000000 0.000000 0.000000 0.000000 20.471322 -0.521724 -0.426057 75.208302 15.356708 20.843191 1.757117 47.231931 0.001147 -2.193957 7.648256 -0.154215 0.059470 -0.240308 0.000000 0.000000 0.000000 0.000000 0.000000 0.000000 0.000000 
